PathFileType	4	(X/Y/Z)	Run_200 02
DataRate	CameraRate	NumFrames	NumMarkers	Units	OrigDataRate	OrigDataStartFrame	OrigNumFrames
100	100	6	42	mm	100	389	128
Frame#	Time	LPSI			RPSI			RTH1			RTH2			RTH3			LTH1			LTH2			LTH3			RTB1			RTB2			RTB3			LTB1			LTB2			LTB3			RCAL			RTOE			RMT5			LCAL			LTOE			LMT5			LACR			RACR			CLAV			C7			RUA1			RUA2			RUA3			RLEL			RMEL			LUA1			LUA2			LUA3			LLEL			LMEL			RFAsuperior			RFAradius			RFAulna			LFAsuperior			LFAradius			LFAulna			RASI			LASI		
		X1	Y1	Z1	X2	Y2	Z2	X3	Y3	Z3	X4	Y4	Z4	X5	Y5	Z5	X6	Y6	Z6	X7	Y7	Z7	X8	Y8	Z8	X9	Y9	Z9	X10	Y10	Z10	X11	Y11	Z11	X12	Y12	Z12	X13	Y13	Z13	X14	Y14	Z14	X15	Y15	Z15	X16	Y16	Z16	X17	Y17	Z17	X18	Y18	Z18	X19	Y19	Z19	X20	Y20	Z20	X21	Y21	Z21	X22	Y22	Z22	X23	Y23	Z23	X24	Y24	Z24	X25	Y25	Z25	X26	Y26	Z26	X27	Y27	Z27	X28	Y28	Z28	X29	Y29	Z29	X30	Y30	Z30	X31	Y31	Z31	X32	Y32	Z32	X33	Y33	Z33	X34	Y34	Z34	X35	Y35	Z35	X36	Y36	Z36	X37	Y37	Z37	X38	Y38	Z38	X39	Y39	Z39	X40	Y40	Z40	X41	Y41	Z41	X42	Y42	Z42	

389	  3.890000	580.818278	1079.697442	-484.731203	585.696940	1075.654851	-401.005126	693.843047	866.156138	-258.791087	747.921329	728.182843	-268.763328	667.187517	624.587509	-285.938833	725.397018	896.201090	-636.659494	835.956996	814.943510	-619.213890	810.280810	664.069605	-622.366054	665.010170	371.534529	-340.287694	574.896454	304.697432	-294.585757	550.159145	207.270899	-355.488904	827.755827	454.542355	-563.578380	729.990053	437.938781	-626.373251	668.400642	322.853805	-547.561682	371.223012	131.420321	-381.314129	593.833666	 65.982285	-356.968174	549.020066	 49.643672	-273.314889	479.450748	314.488887	-526.307514	629.066511	137.494244	-541.989682	580.126374	141.306523	-617.175513	748.616286	1543.458291	-585.217300	740.428567	1500.031129	-247.995160	821.912056	1473.543455	-395.528586	682.195844	1555.074033	-427.711994	693.347238	1382.423847	-169.971769	620.789134	1305.527296	-184.600197	669.177898	1265.599893	-141.507506	663.601363	1171.559373	-122.434579	622.196840	1151.541404	-192.900321	677.659801	1485.148684	-692.705861	593.186602	1433.788284	-697.757277	626.488780	1407.797298	-768.034506	601.705049	1335.596718	-820.453554	530.871388	1323.218852	-784.121143	735.565226	1141.879956	-147.646719	902.670635	1183.115285	-262.644384	893.170230	1112.667401	-249.514145	653.948585	1229.583027	-770.274959	728.222685	1169.708324	-645.469169	683.223660	1125.992926	-672.714211	769.429315	990.810078	-312.101471	766.613293	1009.195694	-573.793999	
390	  3.900000	582.697846	1086.334826	-485.178609	588.458088	1081.276203	-401.876867	693.380491	871.126043	-260.647646	743.309052	732.364010	-271.050063	659.091605	630.745715	-287.543409	728.047649	904.902932	-637.959765	839.041349	824.277973	-618.849543	814.084517	672.687600	-622.653337	651.628827	377.322070	-340.567614	561.375970	311.789029	-294.122720	536.230397	213.706309	-354.056607	837.114585	460.510063	-563.571637	740.693688	437.697788	-626.486924	686.217907	319.167786	-548.375811	356.854960	141.592815	-379.619928	573.989796	 65.475222	-354.218412	529.783726	 50.241565	-273.004908	498.159901	298.813117	-527.359547	659.061485	131.971372	-541.277967	610.241600	132.057809	-616.383557	747.047880	1551.416423	-586.298883	743.019442	1507.698186	-249.804549	822.566802	1481.643526	-398.357529	682.419023	1561.799653	-428.716667	697.548510	1389.670275	-171.397739	625.194903	1312.500532	-185.875281	674.380924	1272.486453	-143.518373	669.440218	1178.225826	-125.127821	628.037351	1158.256806	-195.689785	674.266717	1495.486807	-692.969328	588.684945	1446.596337	-697.697166	620.664495	1419.686735	-768.296879	592.769458	1348.505004	-820.745818	522.545229	1338.257610	-784.017742	741.675551	1150.769357	-151.343594	906.650042	1198.301168	-267.050652	899.715447	1127.630622	-254.322694	643.840606	1241.856171	-771.551154	719.132440	1180.751181	-647.909791	672.996801	1137.779578	-674.391667	771.427698	995.232563	-313.368248	768.286350	1017.331399	-575.699818	
391	  3.910000	584.609242	1093.342154	-485.766983	590.983070	1086.850762	-402.752800	693.606253	876.880385	-262.354286	739.400362	737.136696	-273.309853	651.625836	637.669906	-288.894564	730.666359	913.825643	-639.341399	841.642720	833.395391	-618.645294	816.854086	681.160110	-622.934291	639.137449	384.049101	-340.749383	548.753264	319.643161	-293.520808	523.497863	220.822997	-352.477267	845.377711	466.143190	-563.926720	750.648339	437.482453	-626.746975	704.529706	315.397911	-550.165580	343.855192	152.719922	-378.022954	554.966176	 65.166333	-352.100899	510.753690	 51.134925	-272.627565	517.968039	282.414126	-528.048466	689.656900	126.751662	-541.200062	640.913046	123.050906	-616.172276	745.742503	1559.579888	-587.591450	745.737316	1515.684009	-251.838245	823.195469	1490.138460	-401.275397	682.746187	1568.948481	-429.941733	701.741238	1397.409127	-172.935611	629.082683	1320.167890	-187.853408	678.568547	1280.077276	-145.805255	674.424122	1185.608777	-127.817351	633.243833	1165.571769	-198.529490	671.301767	1505.799071	-693.366040	584.737960	1459.441916	-697.458109	615.178943	1431.476152	-768.377351	584.267391	1361.242605	-820.618334	514.577326	1352.732634	-783.078838	747.253586	1159.985642	-155.392221	910.044403	1213.039069	-270.872651	904.967300	1142.250256	-259.217489	634.398412	1254.040937	-772.498530	711.033511	1191.898589	-650.103294	663.691946	1149.675092	-675.606331	773.812848	1000.568779	-315.136869	770.142539	1025.588020	-577.353555	
392	  3.920000	586.587352	1100.593413	-486.489781	593.384678	1092.683957	-403.583126	694.577163	882.892892	-264.203777	736.075976	742.254162	-275.569617	644.851813	645.207492	-289.998693	733.191429	922.678169	-640.788601	843.767278	842.001873	-618.712913	818.567544	689.212384	-623.286283	627.635663	391.542302	-340.886466	537.059992	328.028967	-292.834152	512.057053	228.332413	-350.763144	852.828936	471.397388	-564.859040	759.826062	437.159106	-627.186932	723.002531	311.519060	-552.245625	332.362286	164.706534	-376.541347	536.794982	 65.071646	-351.908443	491.897668	 52.278178	-272.338983	538.715204	265.499708	-528.158518	720.509598	121.978397	-541.835247	671.839011	114.446342	-616.632226	744.678446	1567.845110	-589.018388	748.485535	1523.808034	-254.121042	823.839606	1498.728945	-404.313088	683.185368	1576.318142	-431.375732	705.724829	1405.357143	-174.682527	632.455234	1328.305389	-190.202057	681.921811	1288.202431	-148.102592	678.638214	1193.491819	-130.435115	637.650893	1173.312053	-201.292511	668.650465	1516.005616	-693.829953	581.283403	1472.000266	-697.011339	609.922563	1443.040115	-768.249914	576.277083	1373.589813	-820.057533	507.092657	1366.416477	-781.322436	752.263425	1169.251797	-159.388548	912.881093	1227.130638	-274.299210	909.040867	1156.293561	-263.971635	625.729440	1265.935736	-773.128793	704.048526	1202.872803	-652.182007	655.448112	1161.373620	-676.416164	776.472309	1006.603619	-317.250218	772.001749	1033.402163	-578.335268	
393	  3.930000	588.696792	1107.884255	-487.238347	596.138034	1098.931661	-404.412730	696.067684	888.854173	-266.137158	732.992143	747.660883	-277.671216	638.782424	653.131541	-290.990294	735.563692	931.172460	-642.233346	845.454812	849.792737	-619.187627	819.258351	696.515716	-623.847405	617.168362	399.489309	-340.942858	526.402500	336.685627	-292.087305	501.957541	235.949509	-348.945074	859.678897	476.263153	-566.356828	768.324378	436.398997	-627.849450	741.313125	307.581844	-553.986968	322.564179	177.415218	-375.165258	519.144635	 65.115401	-353.547227	473.369452	 53.560420	-272.315641	560.389934	248.522716	-527.803256	751.339912	117.796311	-543.302934	702.763006	106.502206	-618.033818	743.787611	1576.096139	-590.483824	751.150708	1531.896733	-256.648075	824.508007	1507.097824	-407.556241	683.735406	1583.698088	-433.017898	709.291165	1413.366703	-176.628381	635.373276	1336.656517	-192.644025	684.685426	1296.643004	-150.176012	682.203495	1201.587390	-132.982955	641.219382	1181.308098	-203.942757	666.203700	1526.034166	-694.265561	578.225492	1483.870290	-696.316418	604.890510	1454.219662	-767.933247	568.861713	1385.318259	-819.172347	500.339192	1379.257339	-779.038086	756.363819	1178.428445	-162.763719	915.212939	1240.419754	-277.501751	912.160164	1169.452543	-268.637385	617.937333	1277.330310	-773.477429	698.266858	1213.452336	-654.154471	648.441537	1172.605696	-676.927487	779.314336	1013.033341	-319.481613	773.850769	1040.764898	-578.670675	
394	  3.940000	591.184236	1114.882758	-487.944042	599.453514	1105.453998	-405.185441	697.648680	894.699914	-267.822389	730.023129	753.228910	-279.539645	633.421869	661.150111	-292.059946	737.710560	939.050593	-643.570665	846.650868	856.496090	-620.169991	818.907970	702.717762	-624.628548	607.728942	407.515863	-340.938945	516.925789	345.328726	-291.292483	493.123972	243.459245	-347.143956	865.775115	480.608518	-568.112854	776.313526	434.900532	-628.791934	759.257611	303.697213	-555.304015	314.542315	190.733987	-373.800523	501.747050	 65.301426	-355.574141	455.387109	 54.980329	-272.582976	583.020637	232.052611	-527.424489	781.939430	114.288021	-545.570511	733.448109	 99.375380	-620.404523	742.984056	1584.150358	-591.941975	753.632179	1539.773207	-259.375558	825.155212	1515.001310	-411.047519	684.384858	1590.895584	-434.863792	712.268277	1421.377539	-178.659408	637.880051	1344.969637	-195.010800	687.037804	1305.031037	-152.061643	685.233056	1209.591029	-135.424456	644.036077	1189.326450	-206.468905	663.866052	1535.719865	-694.601409	575.496187	1494.670916	-695.375570	600.163967	1464.795971	-767.500074	562.093233	1396.220132	-818.186217	494.458689	1391.118911	-776.523734	759.321611	1187.367305	-165.357794	917.115310	1252.724595	-280.536960	914.602048	1181.458924	-273.408869	611.120060	1288.011719	-773.600246	693.733461	1223.485823	-656.011176	642.820457	1183.151068	-677.254281	782.270611	1019.528104	-321.804323	775.770122	1048.019306	-578.811074	
